<svg xmlns="http://www.w3.org/2000/svg" viewBox="0 0 30 30">
  <path d="M9.5449219 4C5.9299219 4 3 6.9299219 3 10.544922C3 16.837321 10.298975 22.849799 13.708984 25.527344 A 2 2 0 0 0 13.71875 25.535156C13.742115 25.5535 13.773881 25.579629 13.796875 25.597656L13.800781 25.597656 A 2 2 0 0 0 15 26 A 2 2 0 0 0 16.201172 25.597656L16.203125 25.597656C16.209855 25.59238 16.219801 25.585381 16.226562 25.580078C16.231704 25.576045 16.23898 25.570455 16.244141 25.566406 A 2 2 0 0 0 16.263672 25.548828C19.663109 22.880904 27 16.852336 27 10.544922C27 6.9299219 24.070078 4 20.455078 4C17.000078 4 15 7 15 7C15 7 12.999922 4 9.5449219 4 z M 15.417969 10.005859C15.47475 9.99675 15.535703 9.9963125 15.595703 10.007812C15.830703 10.053812 16 10.26 16 10.5L16 14L17.5 14C17.666 14 17.821063 14.083703 17.914062 14.220703C18.007062 14.357703 18.025844 14.531547 17.964844 14.685547L15.964844 19.685547C15.888844 19.877547 15.701 20 15.5 20C15.469 20 15.437297 19.996234 15.404297 19.990234C15.169297 19.945234 15 19.74 15 19.5L15 16L13.5 16C13.334 16 13.178937 15.916297 13.085938 15.779297C12.992938 15.642297 12.974156 15.468453 13.035156 15.314453L15.035156 10.314453C15.101156 10.147203 15.247625 10.033188 15.417969 10.005859 z" fill="#5B5B5B" />
</svg>