<svg xmlns="http://www.w3.org/2000/svg" width="30" height="30" viewBox="0 0 30 30">
  <path d="M21.695312 2.0058594 A 1.0001 1.0001 0 0 0 20.753906 3.2363281C20.917088 3.9747465 21 4.7314286 21 5.5C21 5.6077955 20.997841 5.7164043 20.994141 5.8242188 A 1.0001 1.0001 0 0 0 21.292969 6.5703125C23.005819 8.2534198 24 10.580054 24 13C24 14.222745 23.747988 15.429161 23.265625 16.546875 A 1.0001 1.0001 0 0 0 23.253906 17.310547L25.375 22.703125 A 1.0001 1.0001 0 1 0 27.236328 21.972656L25.208984 16.818359C25.667949 15.594015 26 14.317378 26 13C26 10.21812 24.857419 7.6071235 22.998047 5.5898438C22.998278 5.5598938 23 5.5299501 23 5.5C23 4.5885714 22.90185 3.6862691 22.707031 2.8046875 A 1.0001 1.0001 0 0 0 21.695312 2.0058594 z M 16.572266 2.1445312 A 1.0001 1.0001 0 0 0 15.630859 3.5214844C15.876795 4.15365 16 4.814761 16 5.5C16 5.7786334 15.977947 6.0572338 15.935547 6.3320312C15.732753 7.647409 16.274078 8.9778957 17.353516 9.7675781L17.355469 9.7675781C18.352624 10.497761 19 11.669434 19 13C19 13.731613 18.797263 14.430842 18.431641 15.035156 A 1.0001 1.0001 0 0 0 18.429688 15.037109C17.76237 16.145969 17.813251 17.483921 18.355469 18.568359 A 1.0001 1.0001 0 0 0 18.357422 18.570312C18.413042 18.68074 18.460066 18.786773 18.494141 18.873047L20.722656 24.535156 A 1.000123 1.000123 0 1 0 22.583984 23.802734L20.355469 18.140625 A 1.0001 1.0001 0 0 0 20.353516 18.138672C20.293896 17.987711 20.224406 17.832562 20.144531 17.673828C19.877185 17.139135 19.877188 16.513329 20.142578 16.070312L20.144531 16.068359C20.694149 15.159086 21 14.101478 21 13C21 11.01711 20.027352 9.2461764 18.535156 8.1542969C18.069404 7.81387 17.822979 7.2148466 17.912109 6.6367188C17.969702 6.2635164 18 5.8833666 18 5.5C18 4.573239 17.830205 3.6587562 17.494141 2.7949219 A 1.0001 1.0001 0 0 0 16.572266 2.1445312 z M 10.5 3 A 2.5 2.5 0 0 0 8 5.5 A 2.5 2.5 0 0 0 10.5 8 A 2.5 2.5 0 0 0 13 5.5 A 2.5 2.5 0 0 0 10.5 3 z M 9.5 9 A 2.5 2.5 0 0 0 8.0839844 9.4394531L4.1601562 11.746094C3.3863163 12.199792 2.9992029 13.119858 3.2167969 13.990234L4.0292969 17.242188 A 1.0004597 1.0004597 0 0 0 5.9824219 16.810547L5.9863281 16.818359L5.4316406 13.804688L7.2265625 12.878906L8.0117188 17.744141 A 2.5 2.5 0 0 0 8.0117188 17.75L8.0332031 17.878906 A 2.5 2.5 0 0 0 9.6542969 19.849609L9.65625 19.851562L13.683594 21.464844L16.0625 26.34375L16.070312 26.365234 A 1.0001 1.0001 0 1 0 17.929688 25.634766L15.703125 19.972656 A 1.0001 1.0001 0 0 0 15.355469 19.529297L13.035156 17.4375L11.990234 11.294922 A 2.5 2.5 0 0 0 9.5 9 z M 15 12 A 1 1 0 0 0 14.830078 12.013672 A 1 1 0 0 0 14.824219 12.015625L13.544922 12.234375L13.882812 14.205078L15.167969 13.986328 A 1 1 0 0 1 15.169922 13.986328 A 1 1 0 0 0 16 13 A 1 1 0 0 0 15 12 z M 7.8710938 21.220703L7.2265625 22.664062L3.484375 25.144531 A 1 1 0 0 0 3 26 A 1 1 0 0 0 4 27 A 1 1 0 0 0 4.515625 26.855469L4.5175781 26.857422L9.0175781 24.144531C9.2055781 24.031531 9.3500937 23.896031 9.4960938 23.707031L10.453125 22.240234L7.8710938 21.220703 z" fill="#5B5B5B" />
</svg>