<svg xmlns="http://www.w3.org/2000/svg" viewBox="0 0 30 30">
  <path d="M9.5449219 4C5.9299219 4 3 6.9299219 3 10.544922C3 11.031922 3.057625 11.517 3.140625 12L5.1660156 12C5.9470156 12 6.6832812 12.302609 7.2382812 12.849609L7.7207031 13.322266L10.105469 8.5527344C10.286469 8.1907344 10.650312 7.9729063 11.070312 8.0039062C11.473313 8.0319063 11.819266 8.2995937 11.947266 8.6835938L14.085938 15.09375L14.576172 13.865234C15.030172 12.731234 16.111031 12 17.332031 12L19.277344 12C19.623344 11.405 20.261 11 21 11C22.105 11 23 11.895 23 13C23 14.105 22.105 15 21 15C20.262 15 19.624344 14.595 19.277344 14L17.332031 14C16.934031 14 16.580594 14.238422 16.433594 14.607422L14.929688 18.371094C14.776687 18.752094 14.408 19 14 19L13.970703 19C13.550703 18.987 13.184734 18.714406 13.052734 18.316406L10.814453 11.605469L8.8945312 15.447266C8.7505312 15.733266 8.4790625 15.933328 8.1640625 15.986328C7.8490625 16.036328 7.5277812 15.936891 7.3007812 15.712891L5.8378906 14.275391C5.6568906 14.098391 5.4190156 14 5.1660156 14L3.6875 14C5.5809434 18.951854 10.916662 23.332814 13.695312 25.515625 A 2 2 0 0 0 13.740234 25.552734C13.755989 25.565101 13.781292 25.585436 13.796875 25.597656L13.798828 25.595703 A 2 2 0 0 0 15 26 A 2 2 0 0 0 16.203125 25.595703L16.203125 25.597656C16.209855 25.59238 16.219801 25.585381 16.226562 25.580078C16.231704 25.576045 16.23898 25.570455 16.244141 25.566406 A 2 2 0 0 0 16.263672 25.548828C19.663109 22.880904 27 16.852336 27 10.544922C27 6.9299219 24.070078 4 20.455078 4C17.000078 4 15 7 15 7C15 7 12.999922 4 9.5449219 4 z" fill="#5B5B5B" />
</svg>