<svg xmlns="http://www.w3.org/2000/svg" viewBox="0 0 30 30">
  <path d="M18.789062 1.1015625 A 1.0001 1.0001 0 0 0 18.451172 3.0371094C22.34326 4.5581447 25.441855 7.6567398 26.962891 11.548828 A 1.0003189 1.0003189 0 1 0 28.826172 10.820312C27.101207 6.4064015 23.593598 2.8987928 19.179688 1.1738281 A 1.0001 1.0001 0 0 0 18.789062 1.1015625 z M 18.083984 5.1621094 A 1.0001 1.0001 0 0 0 17.708984 7.0703125C19.993706 8.1563115 21.843688 10.006294 22.929688 12.291016 A 1.0001 1.0001 0 1 0 24.734375 11.431641C23.450374 8.7303622 21.269637 6.549626 18.568359 5.265625 A 1.0001 1.0001 0 0 0 18.083984 5.1621094 z M 12 8L10.644531 10.033203C10.246531 10.630203 10.198531 11.395109 10.519531 12.037109L11 13L4.4824219 20.4375C4.1714219 20.8005 4 21.262234 4 21.740234L4 24.585938L2.2929688 26.292969 A 1.0001 1.0001 0 1 0 3.7070312 27.707031L5.4140625 26L8.2597656 26C8.7367656 26 9.1995 25.828578 9.5625 25.517578L17 19L17.962891 19.480469C18.604891 19.801469 19.369797 19.753469 19.966797 19.355469L22 18C22 18 22 14 19 11C16 8 12 8 12 8 z M 14 15C14.255875 15 14.512031 15.097469 14.707031 15.292969C15.098031 15.682969 15.098031 16.317031 14.707031 16.707031L13.707031 17.707031C13.316031 18.098031 12.682969 18.098031 12.292969 17.707031C11.901969 17.316031 11.901969 16.682969 12.292969 16.292969L13.292969 15.292969C13.488469 15.097469 13.744125 15 14 15 z" fill="#5B5B5B" />
</svg>